# xmcd CD database file
#
# Track frame offsets:
#	150
#	17952
#	35537
#	52770
#	69805
#
# Disc length: 1198 seconds
#
# Revision: 0
# Processed by: cddbd v1.5PL3 Copyright (c) Steve Scherf et al.
# Submitted via: CDex 1.51
#
DISCID=3404ac05
DTITLE=D+SHADE - DAYS
DYEAR=1997
DGENRE=Rock
TTITLE0=MEMORIES
TTITLE1=SONG FOR YOU
TTITLE2=ENDLESS LOVE
TTITLE3=DAYS
TTITLE4=風に吹かれて
EXTD=YEAR: 1997
EXTT0=
EXTT1=
EXTT2=
EXTT3=
EXTT4=
PLAYORDER=
